<?xml version="1.0" encoding="UTF-8" standalone="no" ?>
<!DOCTYPE svg PUBLIC "-//W3C//DTD SVG 1.1//EN" "http://www.w3.org/Graphics/SVG/1.1/DTD/svg11.dtd">
<svg xmlns="http://www.w3.org/2000/svg" xmlns:xlink="http://www.w3.org/1999/xlink" version="1.1" width="400" height="400" viewBox="0 0 400 400" xml:space="preserve">
<desc>Created with Fabric.js 3.6.2</desc>
<defs>
</defs>
<g transform="matrix(4 0 0 4 200 200)" id="Layer_1"  >
<path style="stroke: none; stroke-width: 1; stroke-dasharray: none; stroke-linecap: butt; stroke-dashoffset: 0; stroke-linejoin: miter; stroke-miterlimit: 4; fill: rgb(225,55,25); fill-rule: nonzero; opacity: 1;"  transform=" translate(-25, -25)" d="M 45 1 H 5 C 2.8 1 1 2.8 1 5 v 40 c 0 2.2 1.8 4 4 4 h 40 c 2.2 0 4 -1.8 4 -4 V 5 C 49 2.8 47.2 1 45 1 z" stroke-linecap="round" />
</g>
<g transform="matrix(4 0 0 4 240 196)" id="_x2B__1_"  >
<polygon style="stroke: none; stroke-width: 1; stroke-dasharray: none; stroke-linecap: butt; stroke-dashoffset: 0; stroke-linejoin: miter; stroke-miterlimit: 4; fill: rgb(255,255,255); fill-rule: nonzero; opacity: 1;"  points="5,-1 1,-1 1,-5 -1,-5 -1,-1 -5,-1 -5,1 -1,1 -1,5 1,5 1,1 5,1 " />
</g>
<g transform="matrix(4 0 0 4 180 200)" id="g_1_"  >
<path style="stroke: none; stroke-width: 1; stroke-dasharray: none; stroke-linecap: butt; stroke-dashoffset: 0; stroke-linejoin: miter; stroke-miterlimit: 4; fill: rgb(255,255,255); fill-rule: nonzero; opacity: 1;"  transform=" translate(-20, -25)" d="M 25 27 c 0 0 -2 -1.2 -2 -2 c 0 0 -0.5 -1.8 1 -3 c 1.5 -1.2 3 -3 3 -5 c 0 -2.3 -1 -5 -3 -6 h 3 l 2.4 -1 c 0 0 -7.1 0 -9.4 0 c -4.2 0 -8 3.3 -8 7 c 0 3.7 2.8 6.6 7.1 6.6 c 0.3 0 0.6 0 0.9 0 c -0.3 0.5 -0.5 1.1 -0.5 1.7 c 0 1 0.8 2 1.5 2.7 c -0.5 0 -1.4 0 -2 0 c -5.2 0 -9 2.6 -9 6 c 0 3.4 4.9 6 10 6 c 5.9 0 10 -3 10 -7 C 30 30.3 27.5 28.7 25 27 z M 21 23 c -2.4 0 -5.6 -2.9 -6 -6 c -0.4 -3.1 1.6 -6.1 4 -6 s 4.6 2.9 5 6.1 C 24.4 20.2 23 23 21 23 z M 20 38 c -3.6 0 -7 -1.3 -7 -4 c 0 -2.7 3.4 -5 7 -5 c 0.8 0 2 0 2 0 c 1 0 2.9 0.9 4 2 c 1 1 1 2.7 1 3 C 27 37 25 38 20 38 z" stroke-linecap="round" />
</g>
</svg>