<?xml version="1.0" encoding="UTF-8" standalone="no" ?>
<!DOCTYPE svg PUBLIC "-//W3C//DTD SVG 1.1//EN" "http://www.w3.org/Graphics/SVG/1.1/DTD/svg11.dtd">
<svg xmlns="http://www.w3.org/2000/svg" xmlns:xlink="http://www.w3.org/1999/xlink" version="1.1" width="400" height="400" viewBox="0 0 400 400" xml:space="preserve">
<desc>Created with Fabric.js 3.6.2</desc>
<defs>
</defs>
<g transform="matrix(1.07 0 0 1.07 200 200)" id="_521245888"  >
<rect style="stroke: none; stroke-width: 1; stroke-dasharray: none; stroke-linecap: butt; stroke-dashoffset: 0; stroke-linejoin: miter; stroke-miterlimit: 4; fill: rgb(0,152,70); fill-rule: evenodd; opacity: 1;"  x="-93.5" y="-93.5" rx="18" ry="18" width="187" height="187" />
</g>
<g transform="matrix(1.07 0 0 1.07 200 200)" id="_521245888"  >
<path style="stroke: none; stroke-width: 1; stroke-dasharray: none; stroke-linecap: butt; stroke-dashoffset: 0; stroke-linejoin: miter; stroke-miterlimit: 4; fill: rgb(254,254,254); fill-rule: evenodd; opacity: 1;"  transform=" translate(-93.5, -93.5)" d="M 95 146 c -11 0 -22 -3 -31 -9 l -21 7 l 7 -20 c -6 -9 -10 -20 -10 -32 c 0 -2 0 -4 0 -5 c 3 -28 26 -50 55 -50 c 29 0 52 22 55 51 c 0 1 0 2 0 4 c 0 30 -25 54 -55 54 z m 65 -56 c -1 -35 -30 -63 -65 -63 c -35 0 -64 27 -66 62 c 0 1 0 2 0 3 c 0 12 4 24 10 33 l -12 35 l 36 -11 c 9 5 20 8 32 8 c 36 0 65 -29 65 -65 c 0 -1 0 -1 0 -2 z" stroke-linecap="round" />
</g>
<g transform="matrix(1.07 0 0 1.07 202.14 198.57)" id="_521245888"  >
<path style="stroke: none; stroke-width: 1; stroke-dasharray: none; stroke-linecap: butt; stroke-dashoffset: 0; stroke-linejoin: miter; stroke-miterlimit: 4; fill: rgb(254,254,254); fill-rule: evenodd; opacity: 1;"  transform=" translate(-95.5, -92.16)" d="M 125 105 c -2 -1 -10 -5 -11 -5 c -2 -1 -3 -1 -4 1 c -1 1 -4 5 -5 6 c -1 1 -2 1 -3 0 c -2 -1 -7 -2 -13 -8 c -5 -4 -8 -9 -9 -11 c -1 -1 0 -2 0 -3 c 1 -1 2 -2 3 -3 c 0 0 0 0 0 -1 c 1 0 1 -1 1 -1 c 1 -2 1 -2 0 -3 c 0 -1 -3 -9 -5 -12 c -1 -3 -2 -3 -3 -3 c -1 0 -2 0 -3 0 c -1 0 -3 1 -5 2 c -1 2 -5 6 -5 13 c 0 2 0 4 1 6 c 1 5 5 10 5 11 c 1 1 11 18 28 24 c 16 6 16 4 19 4 c 3 0 10 -4 11 -8 c 1 -3 1 -7 1 -7 c -1 -1 -2 -1 -3 -2 z" stroke-linecap="round" />
</g>
</svg>